<?xml version="1.0" encoding="utf-8"?>
<!-- Generator: Adobe Illustrator 17.0.0, SVG Export Plug-In . SVG Version: 6.00 Build 0)  -->
<!DOCTYPE svg PUBLIC "-//W3C//DTD SVG 1.1//EN" "http://www.w3.org/Graphics/SVG/1.1/DTD/svg11.dtd">
<svg version="1.1" id="Layer_1" xmlns="http://www.w3.org/2000/svg" xmlns:xlink="http://www.w3.org/1999/xlink" x="0px" y="0px"
	 width="50px" height="50px" viewBox="0 0 50 50" enable-background="new 0 0 50 50" xml:space="preserve">
<g>
	<g>
		<g>
			<path fill="#D50000" d="M25.083,0.167c-13.761,0-24.917,11.155-24.917,24.917S11.322,50,25.083,50S50,38.845,50,25.083
				S38.845,0.167,25.083,0.167z M37.785,36.296H13.062v-1.435c0.79-0.024,1.435-0.096,1.937-0.216s0.885-0.323,1.149-0.61
				c0.263-0.287,0.442-0.694,0.538-1.221c0.096-0.526,0.143-1.207,0.143-2.046V14.194c0-0.837-0.042-1.512-0.126-2.027
				c-0.083-0.515-0.247-0.921-0.485-1.22c-0.239-0.299-0.581-0.502-1.023-0.61c-0.442-0.107-1.023-0.186-1.74-0.233V8.668h12.379
				v1.435c-0.814,0.024-1.466,0.096-1.956,0.216c-0.491,0.12-0.867,0.335-1.13,0.645c-0.263,0.311-0.436,0.741-0.521,1.292
				c-0.083,0.551-0.126,1.279-0.126,2.189v15.033c0,1.004,0.102,1.824,0.305,2.458c0.203,0.635,0.556,1.125,1.059,1.473
				c0.502,0.346,1.171,0.586,2.01,0.718c0.838,0.132,1.877,0.197,3.122,0.197c1.388,0,2.548-0.083,3.481-0.252
				c0.933-0.167,1.717-0.485,2.35-0.951c0.633-0.466,1.142-1.095,1.525-1.885s0.705-1.816,0.969-3.086h1.435L37.785,36.296z"/>
		</g>
	</g>
</g>
</svg>
