<?xml version="1.0" encoding="utf-8"?>
<!-- Generator: Adobe Illustrator 17.0.0, SVG Export Plug-In . SVG Version: 6.00 Build 0)  -->
<!DOCTYPE svg PUBLIC "-//W3C//DTD SVG 1.1//EN" "http://www.w3.org/Graphics/SVG/1.1/DTD/svg11.dtd">
<svg version="1.1" id="Layer_1" xmlns="http://www.w3.org/2000/svg" xmlns:xlink="http://www.w3.org/1999/xlink" x="0px" y="0px"
	 width="50px" height="50px" viewBox="0 0 50 50" enable-background="new 0 0 50 50" xml:space="preserve">
<g>
	<g>
		<path fill="#FFFFFF" d="M25,5C13.954,5,5,13.954,5,25s8.954,20,20,20s20-8.954,20-20S36.046,5,25,5z M35.195,34H15.351v-1.152
			c0.634-0.019,1.152-0.077,1.555-0.173s0.71-0.259,0.922-0.49c0.211-0.23,0.355-0.557,0.432-0.98
			c0.077-0.422,0.115-0.969,0.115-1.642V16.259c0-0.672-0.034-1.214-0.101-1.627s-0.198-0.739-0.389-0.979
			c-0.192-0.24-0.466-0.403-0.821-0.49c-0.355-0.086-0.821-0.149-1.397-0.187v-1.152h9.936v1.152
			c-0.653,0.019-1.177,0.077-1.57,0.173c-0.394,0.096-0.696,0.269-0.907,0.518c-0.211,0.25-0.35,0.595-0.418,1.037
			c-0.067,0.442-0.101,1.027-0.101,1.757v12.067c0,0.806,0.082,1.464,0.245,1.973c0.163,0.51,0.446,0.903,0.85,1.182
			c0.403,0.278,0.94,0.47,1.613,0.576c0.673,0.106,1.507,0.158,2.506,0.158c1.114,0,2.045-0.067,2.794-0.202
			c0.749-0.134,1.378-0.389,1.886-0.763s0.917-0.879,1.224-1.513s0.566-1.458,0.778-2.477h1.152L35.195,34z"/>
	</g>
</g>
</svg>
